<?xml version="1.0" standalone="no"?>
<!DOCTYPE svg PUBLIC "-//W3C//DTD SVG 20010904//EN"
 "http://www.w3.org/TR/2001/REC-SVG-20010904/DTD/svg10.dtd">
<svg version="1.0" xmlns="http://www.w3.org/2000/svg"
 width="512.000000pt" height="512.000000pt" viewBox="0 0 512.000000 512.000000"
 preserveAspectRatio="xMidYMid meet">
<metadata>
Created by potrace 1.14, written by Peter Selinger 2001-2017
</metadata>
<g transform="translate(0.000000,512.000000) scale(0.100000,-0.100000)"
fill="#000000" stroke="none">
<path d="M0 2560 l0 -2560 2560 0 2560 0 0 2560 0 2560 -2560 0 -2560 0 0
-2560z m3565 1635 c252 -27 486 -80 612 -141 264 -126 390 -484 355 -1011 -14
-199 -51 -518 -82 -693 -73 -420 -202 -665 -408 -773 -101 -53 -184 -70 -317
-64 -136 5 -210 30 -272 92 -38 37 -43 48 -43 87 0 24 16 100 35 169 47 167
81 332 99 477 24 193 39 513 33 697 -5 144 -9 173 -25 195 -27 36 -83 40 -116
7 l-23 -24 -6 -359 c-7 -468 -25 -615 -117 -939 -46 -165 -56 -228 -42 -279
l11 -37 -62 -46 c-34 -25 -87 -57 -117 -70 -149 -67 -356 -71 -480 -8 -59 30
-82 57 -119 135 -116 248 -116 784 0 1402 16 88 28 161 27 163 -2 1 -30 7 -63
14 -33 7 -67 14 -76 17 -14 4 -21 -17 -43 -133 -68 -364 -91 -592 -91 -908 1
-273 13 -382 56 -520 l19 -60 -37 -34 c-21 -18 -63 -45 -93 -60 -46 -22 -68
-26 -140 -25 -252 2 -428 141 -510 403 -50 158 -63 285 -57 526 5 193 11 254
48 462 12 69 12 74 -8 100 -41 57 -112 51 -138 -9 -7 -18 -22 -89 -34 -158
-73 -444 -44 -824 84 -1097 l43 -91 -47 -26 c-105 -57 -233 -70 -343 -36 -256
79 -419 337 -473 747 -8 63 -15 141 -15 173 0 46 -8 80 -35 145 -62 149 -88
280 -89 435 0 156 14 220 75 347 70 147 189 275 365 394 155 104 300 161 574
224 337 77 592 119 855 140 44 4 132 13 195 22 331 44 772 56 1035 28z m1006
-2287 c29 -208 -48 -458 -222 -718 -71 -106 -231 -277 -328 -351 -88 -66 -232
-137 -302 -149 -71 -11 -117 -1 -216 49 -108 54 -172 69 -373 86 -318 26 -371
38 -424 91 -78 78 -99 207 -48 304 l27 53 125 -2 c98 -1 143 3 205 19 94 23
219 83 289 138 l50 38 47 -32 c181 -121 532 -116 744 11 162 98 289 269 370
498 33 92 39 88 56 -35z"/>
</g>
</svg>
