<?xml version="1.0" encoding="UTF-8"?>
<svg width="1200pt" height="1200pt" version="1.1" viewBox="0 0 1200 1200" xmlns="http://www.w3.org/2000/svg">
 <path d="m755.4 417.24 40.922-186.96-117.84 107.28-73.922-231.6-73.078 229.8-119.76-109.08 40.078 182.88-277.08-60.48 173.16 190.08-177.84 56.762 174.12 55.32-174.24 191.64 274.68-60-40.922 186.96 117.96-107.52 73.559 231.6 73.199-229.68 119.64 109.08-39.84-183 277.2 60.719-173.28-190.32 177.72-56.52-173.88-55.68 174.24-191.28zm-157.92 251.88c0-0.12109-0.12109-0.12109-0.12109-0.23828v-0.12109c-0.35938-0.60156-0.60156-1.3203-0.96094-1.9219-12.961-30.359-4.3203-92.281 3-124.8l-12.719-2.8789c-2.0391 9.3594-19.199 87.961-3.6016 130.08-3.1211 3.3594-7.4414 6.9609-13.441 8.7617-0.48047 0.23828-14.281 4.1992-31.32-5.6406-21.48-12.602-28.68-57.121-17.641-108.24 0.60156-3.6016-1.5586-7.0781-5.1602-7.9219-3.6016-0.83984-6.9609 1.5586-7.8008 5.0391-9.6016 44.16-6.1211 83.281 8.0391 106.32-4.3203 3-11.16 6.6016-19.801 6.8398-10.801 0.60156-18.84-4.1992-23.879-7.8008-9.2383-6.4805-13.441-14.52-15.961-19.32-8.3984-16.32-10.441-37.32-10.922-51.84v-0.12109c0-0.96094-0.12109-1.8008-0.48047-2.7617-3.8398-7.9219-15.359-36-6-61.559 7.0781-19.801 22.441-30.84 30.602-36.719 16.078-11.641 30.48-15.238 61.199-21.961 20.039-4.4414 41.039-7.3203 62.762-8.7617 52.559-7.8008 98.16-6 131.52 4.8008 5.2812 1.6797 9.4805 3.3594 13.922 6.7188 29.398 21.48 23.281 75.359 19.801 104.16-4.4414 39.719-11.16 79.559-39 92.039-16.801 7.4414-40.199 4.5586-47.16-5.7617l-0.12109-0.12109c-2.2812-3.6016-1.8008-6.2383 1.5586-17.641 2.6406-8.8789 6.1211-21.238 8.3984-40.078 3.8398-31.199 2.0391-65.16 1.9219-66.602-0.12109-3.6016-3-6.4805-6.8398-6.1211-3.7188 0.12109-6.4805 3.2383-6.1211 6.8398 0 0.35938 1.5586 34.32-1.9219 64.559-2.0391 17.641-5.5195 29.281-8.0391 37.801-2.7617 9.3594-4.8008 16.559-2.2812 23.762-5.5195 5.2812-13.559 10.801-24.48 12.84-2.3984 0.48047-24.121 4.1992-34.199-7.1992-1.4297-1.6719-2.1523-3.2305-2.75-4.4297zm135.36 48.48c-15.719 16.441-33.719 25.68-44.641 23.398-2.3984-0.48047-4.3203-1.5586-6.9609-2.8789-4.4414-2.3984-10.078-5.2812-19.922-6.9609-4.4414-0.83984-7.1992-0.96094-10.801-1.0781-3.9609-0.12109-8.8789-0.35938-19.199-1.6797-9.8398-1.1992-12.121-1.9219-14.52-3.7188-7.0781-5.1602-8.1602-14.281-8.1602-14.52-0.83984-6.8398 2.1602-12.602 4.6797-16.32 3.7188 0.60156 7.1992 0.96094 10.441 0.96094 6.1211 0 11.16-0.83984 13.078-1.1992 13.078-2.5195 22.922-8.7617 29.762-15 7.9219 6.8398 19.68 9.9609 31.68 9.9609 9.2383 0 18.602-1.8008 26.52-5.3984 19.922-8.8789 30.84-28.199 37.32-49.441 0.23828 0.83984 0.48047 1.6797 0.83984 2.6406 7.8047 28.793-11.398 61.793-30.117 81.234z"/>
</svg>
